<svg version="1.1" viewBox="0 0 80 80" xmlns="http://www.w3.org/2000/svg">
 <circle cx="40" cy="40" r="40" fill="#2F2F2F" opacity=".16"/>
 <g transform="matrix(.85294 0 0 .98032 25.5 23.302)" fill="#9f9f9f">
  <path d="m25.142 19.324c-2.2876-2.7619-5.179-4.283-8.1419-4.283-2.963 0-5.8545 1.5211-8.1419 4.283-2.0562 2.4826-3.2837 5.6114-3.2837 8.3696 0 1.3398 0.4096 2.3603 1.2174 3.0333 0.79728 0.6644 1.8499 0.8891 3.0242 0.889 1.2496 0 2.637-0.2545 4.0003-0.5045 1.1913-0.2186 2.3165-0.425 3.1837-0.425 0.7485 0 1.8039 0.1959 2.9211 0.4033 2.6109 0.4848 5.5702 1.0341 7.2797-0.3873 0.8127-0.6757 1.2247-1.688 1.2247-3.0088 1e-4 -2.7582-1.2274-5.887-3.2836-8.3696zm0.7852 9.8466c-0.9909 0.824-3.5701 0.3451-5.6425-0.0395-1.21-0.2247-2.3528-0.4369-3.2847-0.4369-1.0485 0-2.2602 0.2224-3.5432 0.4577-1.9876 0.3646-4.4612 0.8184-5.3898 0.0446-0.12378-0.1032-0.50044-0.417-0.50044-1.503 0-2.2742 1.0828-4.9943 2.8258-7.0988 1.9022-2.2967 4.2489-3.5616 6.6076-3.5616 2.3588 0 4.7054 1.2649 6.6076 3.5616 1.7431 2.1045 2.8258 4.8246 2.8258 7.0988 2e-4 1.0562-0.3808 1.373-0.5061 1.4771z"/>
  <path d="m25.376 4.3262c-0.837-1.234-2.0355-1.9416-3.2882-1.9416-1.2528 0-2.4513 0.70776-3.2883 1.9416-0.7688 1.1336-1.1923 2.6223-1.1923 4.1919 0 1.5695 0.4234 3.0582 1.1923 4.1919 0.837 1.2339 2.0355 1.9417 3.2883 1.9417s2.4512-0.7078 3.2882-1.9417c0.7689-1.1337 1.1923-2.6224 1.1923-4.1919 0-1.5696-0.4234-3.0583-1.1923-4.1919zm-1.6487 7.2655c-0.2704 0.3988-0.8431 1.0679-1.6395 1.0679s-1.3691-0.669-1.6396-1.0679c-0.5395-0.7954-0.8489-1.9157-0.8489-3.0736 0-1.158 0.3095-2.2783 0.8489-3.0737 0.2705-0.39877 0.8432-1.0678 1.6396-1.0678s1.3691 0.66897 1.6395 1.0678c0.5395 0.79541 0.8489 1.9158 0.8489 3.0737-1e-4 1.1579-0.3094 2.2782-0.8489 3.0736z"/>
  <path d="m15.201 4.326c-0.837-1.234-2.0354-1.9417-3.2882-1.9417-1.2529 0-2.4514 0.70775-3.2883 1.9417-0.76885 1.1336-1.1923 2.6223-1.1923 4.1919 0 1.5696 0.42341 3.0583 1.1923 4.1919 0.83699 1.234 2.0354 1.9418 3.2883 1.9418 1.2528 0 2.4512-0.7078 3.2882-1.9418 0.7689-1.1336 1.1923-2.6223 1.1923-4.1919 0-1.5696-0.4234-3.0583-1.1923-4.1919zm-1.6488 7.2656c-0.2705 0.3988-0.8432 1.0678-1.6395 1.0678-0.7964 0-1.3691-0.669-1.6396-1.0678-0.53946-0.7954-0.84885-1.9157-0.84885-3.0736 0-1.158 0.30946-2.2783 0.84885-3.0737 0.2705-0.39877 0.8432-1.0678 1.6396-1.0678s1.369 0.66898 1.6395 1.0678c0.5395 0.79541 0.8489 1.9158 0.8489 3.0737 0 1.1579-0.3094 2.2782-0.8489 3.0736z"/>
  <path d="m33.802 13.954c-0.3374-1.1478-1.0606-1.9817-2.0363-2.3482-0.7852-0.295-1.6715-0.245-2.4958 0.1408-1.1358 0.5315-2.0643 1.6291-2.547 3.0112-0.3945 1.1294-0.4438 2.3232-0.1385 3.3616 0.3374 1.1478 1.0606 1.9818 2.0364 2.3483 0.3377 0.1268 0.694 0.1898 1.056 0.1898 0.4799 0 0.97-0.1108 1.4398-0.3307 1.1359-0.5315 2.0643-1.629 2.5471-3.0111v-1e-4c0.3944-1.1293 0.4437-2.3232 0.1383-3.3616zm-2.0191 2.7047c-0.3025 0.866-0.8673 1.5627-1.5107 1.8638-0.2366 0.1106-0.5935 0.2144-0.9509 0.0802-0.8625-0.324-1.198-1.8137-0.7179-3.1879 0.3026-0.866 0.8674-1.5628 1.5108-1.8639 0.1569-0.0734 0.3666-0.1437 0.5942-0.1437 0.1158 0 0.2363 0.0182 0.3567 0.0634 0.8625 0.324 1.198 1.8138 0.7178 3.1881z"/>
  <path d="m7.2773 14.758c-0.48284-1.3821-1.4113-2.4796-2.5471-3.0111-0.8243-0.3858-1.7107-0.4357-2.4958-0.1409-0.97578 0.3666-1.699 1.2006-2.0364 2.3483-0.30527 1.0384-0.25606 2.2322 0.13846 3.3616v1e-4c0.48291 1.3821 1.4113 2.4796 2.5471 3.0111 0.46989 0.2199 0.9599 0.3307 1.4398 0.3307 0.36205 0 0.71838-0.0631 1.056-0.1899 0.97591-0.3665 1.6991-1.2005 2.0365-2.3482 0.30514-1.0384 0.25593-2.2322-0.13852-3.3617zm-2.5985 3.845c-0.35734 0.1343-0.71434 0.0305-0.95088-0.0802-0.64341-0.3011-1.2083-0.9978-1.5107-1.8638v1e-4c-0.48005-1.3743-0.14463-2.864 0.71785-3.1881 0.35727-0.1342 0.71434-0.0304 0.95094 0.0803 0.64348 0.3011 1.2083 0.9978 1.5107 1.8638 0.48005 1.3743 0.14457 2.8639-0.71791 3.1879z"/>
 </g>
</svg>
